<?xml version="1.0" encoding="UTF-8" standalone="no"?>
<!-- Created with Inkscape (http://www.inkscape.org/) -->

<svg
   id="svg5"
   version="1.1"
   viewBox="0 0 1920 1080"
   height="1080"
   width="1920"
   inkscape:version="1.1.1 (3bf5ae0d25, 2021-09-20)"
   sodipodi:docname="green.svg"
   xmlns:inkscape="http://www.inkscape.org/namespaces/inkscape"
   xmlns:sodipodi="http://sodipodi.sourceforge.net/DTD/sodipodi-0.dtd"
   xmlns:xlink="http://www.w3.org/1999/xlink"
   xmlns="http://www.w3.org/2000/svg"
   xmlns:svg="http://www.w3.org/2000/svg">
  <sodipodi:namedview
     id="namedview7"
     pagecolor="#505050"
     bordercolor="#ffffff"
     borderopacity="1"
     inkscape:pageshadow="0"
     inkscape:pageopacity="0"
     inkscape:pagecheckerboard="1"
     inkscape:document-units="px"
     showgrid="false"
     inkscape:zoom="0.36141013"
     inkscape:cx="867.43556"
     inkscape:cy="504.96648"
     inkscape:window-width="1366"
     inkscape:window-height="705"
     inkscape:window-x="0"
     inkscape:window-y="0"
     inkscape:window-maximized="1"
     inkscape:current-layer="layer1" />
  <defs
     id="defs2">
    <linearGradient
       inkscape:collect="always"
       id="linearGradient1677">
      <stop
         style="stop-color:#66bb6a;stop-opacity:1;"
         offset="0"
         id="stop1673" />
      <stop
         style="stop-color:#66bb6a;stop-opacity:0;"
         offset="1"
         id="stop1675" />
    </linearGradient>
    <linearGradient
       inkscape:collect="always"
       xlink:href="#linearGradient1677"
       id="linearGradient1679"
       x1="1387.8473"
       y1="375.80121"
       x2="1959.0692"
       y2="-215.45468"
       gradientUnits="userSpaceOnUse" />
    <linearGradient
       inkscape:collect="always"
       xlink:href="#linearGradient1677"
       id="linearGradient2513"
       gradientUnits="userSpaceOnUse"
       x1="1012.3214"
       y1="171.26152"
       x2="1029.6691"
       y2="-655.88483" />
    <linearGradient
       inkscape:collect="always"
       xlink:href="#linearGradient1677"
       id="linearGradient2801"
       gradientUnits="userSpaceOnUse"
       x1="776.00317"
       y1="-1253.2461"
       x2="780.32745"
       y2="-694.19537" />
    <linearGradient
       inkscape:collect="always"
       xlink:href="#linearGradient1677"
       id="linearGradient2901"
       gradientUnits="userSpaceOnUse"
       x1="1468.4014"
       y1="600.18042"
       x2="1455.2703"
       y2="-225.23" />
    <clipPath
       clipPathUnits="userSpaceOnUse"
       id="clipPath7653">
      <path
         id="path7655"
         style="fill:#ff0000;fill-opacity:1;fill-rule:nonzero;stroke:none"
         d="m 1185.2188,-25.925673 240.0668,651.045503 5.2337,-1.92985 14.0535,-5.1821 c 3.5988,-1.32704 7.1983,-2.65441 10.7971,-3.98135 3.7213,-1.37218 7.4424,-2.74461 11.1638,-4.11651 l 13.2673,-4.89222 c 4.0891,-1.5078 8.1842,-2.99864 12.2668,-4.52327 10.7011,-3.99068 21.4054,-7.97935 32.1978,-11.71861 6.2781,-2.30432 12.5973,-4.58865 18.7325,-7.26129 2.4384,-1.0605 3.4511,-1.70729 4.6582,-2.24853 1.2072,-0.54109 2.6102,-0.97742 5.8293,-1.61861 1.6569,-0.33003 3.3745,-0.18661 5.0613,-0.28007 4.1222,1.82379 10.4981,1.3672 12.3651,5.46997 4.0232,8.84148 3.3563,14.54905 0.2166,18.59068 11.1377,5.61359 9.2573,21.48539 -10.4971,25.86367 -2.9892,0.66248 -6.0366,1.10267 -8.9672,1.98879 -8.9544,2.70747 -25.1855,8.6857 -34.3906,12.15672 -1.0112,0.38355 -2.0177,0.77919 -3.0289,1.16271 0.6577,0.10024 1.6295,0.0238 1.5039,0.56127 -0.095,0.40476 -0.4103,0.89758 -0.8503,1.43137 4.658,4.34383 7.218,7.16537 8.3151,9.50936 l 225.8846,-83.29279 -261.196,-708.34643 z m 366.8344,607.608953 c -0.2491,0.10248 -0.4379,0.23499 -0.4792,0.40572 -0.023,0.0969 -0.051,0.19681 -0.075,0.294 0.7075,-0.26099 1.4187,-0.51248 2.1127,-0.80782 0.4839,-0.20505 -0.8109,-0.19561 -1.5587,0.10848 z" />
    </clipPath>
    <clipPath
       clipPathUnits="userSpaceOnUse"
       id="clipPath7689">
      <path
         id="path7691"
         style="fill:#ff0000;fill-opacity:1;fill-rule:nonzero;stroke:none"
         d="m 767.78006,-350.0307 225.00689,623.23806 267.10595,-96.43295 -202.6493,-561.3105 c -5.0992,1.85766 -10.1515,3.84882 -15.3071,5.54707 -5.4939,1.61914 -10.7637,4.22849 -16.1212,6.4847 -7.7264,2.50728 -6.067,1.86567 -10.3769,1.22342 l -28.65457,10.34512 -2.90996,1.05058 c -1.95541,0.89638 -4.16603,1.78112 -7.0599,3.0721 -2.98516,1.33173 -5.93357,2.74435 -8.90048,4.11662 -4.40134,2.03573 -8.3037,2.79144 -11.73891,2.81152 l -34.10147,12.31161 c 0.14362,0.35954 -0.93825,0.74962 -1.09121,0.39396 l -0.12676,0.0458 c 0.12029,0.4778 -0.92724,0.33476 -1.39067,0.50207 -25.76366,9.30143 -35.15971,-16.7243 -9.39604,-26.02573 0.46345,-0.16732 1.178,-0.94652 1.39066,-0.50207 l 0.12677,-0.0458 c -0.0547,-0.18569 0.1884,-0.37528 0.46031,-0.47351 0.2719,-0.0982 0.57131,-0.10463 0.6309,0.0795 l 39.66047,-14.31857 1.22351,-0.44172 c 1.70528,-0.93779 3.62191,-1.77902 5.87628,-2.43921 3.45521,-1.01186 6.70768,-2.68981 10.00613,-4.22923 2.3617,-2.9002 4.57119,-5.42925 6.8003,-7.42628 -0.51774,0.0195 -1.02177,0.0187 -1.4599,0.0287 -2.64651,1.19605 -4.66536,2.02008 -11.26597,4.67368 -3.15042,1.26655 -6.14547,3.04882 -9.46319,3.77157 -3.55131,0.77365 -8.51415,3.4171 -10.88323,0.66073 -2.55055,-2.96753 -4.5381,-5.42249 -6.05316,-7.51196 -13.15801,2.40846 -20.5721,-5.25695 -18.87505,-13.52087 z m 266.35274,-96.16101 c 0.6602,0.95154 1.2988,1.91429 1.9,2.90436 l -1.1468,-3.17629 z m -67.55315,53.41 c -0.14989,0.0766 -0.29585,0.16146 -0.44508,0.23959 -0.13997,0.0982 -0.29076,0.21122 -0.38541,0.27827 0.27667,-0.17306 1.12115,-0.66633 0.83049,-0.51786 z m 37.08045,-6.72357 c 0.094,0.01 0.1874,0.0281 0.2813,0.0376 0.8785,0.0862 0.6329,0.0147 -0.053,-0.11785 -0.075,0.0275 -0.1528,0.0529 -0.2285,0.0804 z" />
    </clipPath>
  </defs>
  <g
     inkscape:label="Capa 1"
     inkscape:groupmode="layer"
     id="layer1">
    <rect
       style="fill:#0a0a0a;fill-opacity:1;fill-rule:evenodd;stroke:#232323;stroke-width:0;stroke-linejoin:round"
       id="rect846"
       width="1920"
       height="1080"
       x="4.9999994e-07"
       y="5e-07"
       ry="0.95021206" />
    <path
       d="M 0.49963856,0.49963856 V 1079.5004 M 10.494433,0.49963856 V 1079.5004 M 20.489229,0.49963856 V 1079.5004 M 30.484023,0.49963856 V 1079.5004 M 40.478818,0.49963856 V 1079.5004 M 50.473613,0.49963856 V 1079.5004 M 60.468408,0.49963856 V 1079.5004 M 70.463203,0.49963856 V 1079.5004 M 80.457998,0.49963856 V 1079.5004 M 90.452792,0.49963856 V 1079.5004 M 100.44758,0.49963856 V 1079.5004 M 110.44239,0.49963856 V 1079.5004 M 120.43718,0.49963856 V 1079.5004 M 130.43197,0.49963856 V 1079.5004 M 140.42676,0.49963856 V 1079.5004 M 150.42156,0.49963856 V 1079.5004 M 160.41636,0.49963856 V 1079.5004 M 170.41115,0.49963856 V 1079.5004 M 180.40594,0.49963856 V 1079.5004 M 190.40076,0.49963856 V 1079.5004 M 200.39556,0.49963856 V 1079.5004 M 210.39035,0.49963856 V 1079.5004 M 220.38514,0.49963856 V 1079.5004 M 230.37994,0.49963856 V 1079.5004 M 240.37474,0.49963856 V 1079.5004 M 250.36953,0.49963856 V 1079.5004 M 260.36432,0.49963856 V 1079.5004 M 270.35912,0.49963856 V 1079.5004 M 280.35392,0.49963856 V 1079.5004 M 290.34871,0.49963856 V 1079.5004 M 300.3435,0.49963856 V 1079.5004 M 310.3383,0.49963856 V 1079.5004 M 320.3331,0.49963856 V 1079.5004 M 330.32789,0.49963856 V 1079.5004 M 340.32268,0.49963856 V 1079.5004 M 350.31748,0.49963856 V 1079.5004 M 360.31228,0.49963856 V 1079.5004 M 370.30707,0.49963856 V 1079.5004 M 380.30186,0.49963856 V 1079.5004 M 390.29666,0.49963856 V 1079.5004 M 400.29146,0.49963856 V 1079.5004 M 410.28625,0.49963856 V 1079.5004 M 420.28104,0.49963856 V 1079.5004 M 430.27584,0.49963856 V 1079.5004 M 440.27063,0.49963856 V 1079.5004 M 450.26543,0.49963856 V 1079.5004 M 460.26022,0.49963856 V 1079.5004 M 470.25502,0.49963856 V 1079.5004 M 480.24981,0.49963856 V 1079.5004 M 490.24461,0.49963856 V 1079.5004 M 500.2394,0.49963856 V 1079.5004 M 510.2342,0.49963856 V 1079.5004 M 520.22899,0.49963856 V 1079.5004 M 530.22379,0.49963856 V 1079.5004 M 540.21858,0.49963856 V 1079.5004 M 550.21338,0.49963856 V 1079.5004 M 560.20817,0.49963856 V 1079.5004 M 570.20297,0.49963856 V 1079.5004 M 580.19776,0.49963856 V 1079.5004 M 590.19256,0.49963856 V 1079.5004 M 600.18735,0.49963856 V 1079.5004 M 610.18215,0.49963856 V 1079.5004 M 620.17694,0.49963856 V 1079.5004 M 630.17174,0.49963856 V 1079.5004 M 640.16653,0.49963856 V 1079.5004 M 650.16133,0.49963856 V 1079.5004 M 660.15612,0.49963856 V 1079.5004 M 670.15092,0.49963856 V 1079.5004 M 680.14571,0.49963856 V 1079.5004 M 690.1405,0.49963856 V 1079.5004 M 700.1353,0.49963856 V 1079.5004 M 710.1301,0.49963856 V 1079.5004 M 720.12489,0.49963856 V 1079.5004 M 730.11968,0.49963856 V 1079.5004 M 740.11448,0.49963856 V 1079.5004 M 750.10928,0.49963856 V 1079.5004 M 760.10407,0.49963856 V 1079.5004 M 770.09886,0.49963856 V 1079.5004 M 780.09366,0.49963856 V 1079.5004 M 790.08846,0.49963856 V 1079.5004 M 800.08325,0.49963856 V 1079.5004 M 810.07804,0.49963856 V 1079.5004 M 820.07284,0.49963856 V 1079.5004 M 830.06764,0.49963856 V 1079.5004 M 840.06243,0.49963856 V 1079.5004 M 850.05722,0.49963856 V 1079.5004 M 860.05202,0.49963856 V 1079.5004 M 870.04682,0.49963856 V 1079.5004 M 880.04161,0.49963856 V 1079.5004 M 890.0364,0.49963856 V 1079.5004 M 900.03121,0.49963856 V 1079.5004 M 910.026,0.49963856 V 1079.5004 M 920.02079,0.49963856 V 1079.5004 M 930.01558,0.49963856 V 1079.5004 M 940.01039,0.49963856 V 1079.5004 M 950.00518,0.49963856 V 1079.5004 M 959.99997,0.49963856 V 1079.5004 M 969.99476,0.49963856 V 1079.5004 M 979.98956,0.49963856 V 1079.5004 M 989.98436,0.49963856 V 1079.5004 M 999.97923,0.49963856 V 1079.5004 M 1009.974,0.49963856 V 1079.5004 M 1019.9688,0.49963856 V 1079.5004 M 1029.9636,0.49963856 V 1079.5004 M 1039.9584,0.49963856 V 1079.5004 M 1049.9532,0.49963856 V 1079.5004 M 1059.948,0.49963856 V 1079.5004 M 1069.9428,0.49963856 V 1079.5004 M 1079.9376,0.49963856 V 1079.5004 M 1089.9324,0.49963856 V 1079.5004 M 1099.9271,0.49963856 V 1079.5004 M 1109.9219,0.49963856 V 1079.5004 M 1119.9167,0.49963856 V 1079.5004 M 1129.9115,0.49963856 V 1079.5004 M 1139.9063,0.49963856 V 1079.5004 M 1149.9011,0.49963856 V 1079.5004 M 1159.8959,0.49963856 V 1079.5004 M 1169.8908,0.49963856 V 1079.5004 M 1179.8856,0.49963856 V 1079.5004 M 1189.8804,0.49963856 V 1079.5004 M 1199.8752,0.49963856 V 1079.5004 M 1209.87,0.49963856 V 1079.5004 M 1219.8648,0.49963856 V 1079.5004 M 1229.8595,0.49963856 V 1079.5004 M 1239.8543,0.49963856 V 1079.5004 M 1249.8491,0.49963856 V 1079.5004 M 1259.8439,0.49963856 V 1079.5004 M 1269.8387,0.49963856 V 1079.5004 M 1279.8335,0.49963856 V 1079.5004 M 1289.8283,0.49963856 V 1079.5004 M 1299.8231,0.49963856 V 1079.5004 M 1309.8179,0.49963856 V 1079.5004 M 1319.8127,0.49963856 V 1079.5004 M 1329.8075,0.49963856 V 1079.5004 M 1339.8023,0.49963856 V 1079.5004 M 1349.7971,0.49963856 V 1079.5004 M 1359.7919,0.49963856 V 1079.5004 M 1369.7866,0.49963856 V 1079.5004 M 1379.7814,0.49963856 V 1079.5004 M 1389.7762,0.49963856 V 1079.5004 M 1399.771,0.49963856 V 1079.5004 M 1409.7658,0.49963856 V 1079.5004 M 1419.7606,0.49963856 V 1079.5004 M 1429.7554,0.49963856 V 1079.5004 M 1439.7502,0.49963856 V 1079.5004 M 1449.745,0.49963856 V 1079.5004 M 1459.7398,0.49963856 V 1079.5004 M 1469.7346,0.49963856 V 1079.5004 M 1479.7294,0.49963856 V 1079.5004 M 1489.7242,0.49963856 V 1079.5004 M 1499.7189,0.49963856 V 1079.5004 M 1509.7137,0.49963856 V 1079.5004 M 1519.7085,0.49963856 V 1079.5004 M 1529.7033,0.49963856 V 1079.5004 M 1539.6981,0.49963856 V 1079.5004 M 1549.6929,0.49963856 V 1079.5004 M 1559.6877,0.49963856 V 1079.5004 M 1569.6825,0.49963856 V 1079.5004 M 1579.6773,0.49963856 V 1079.5004 M 1589.6722,0.49963856 V 1079.5004 M 1599.667,0.49963856 V 1079.5004 M 1609.6618,0.49963856 V 1079.5004 M 1619.6566,0.49963856 V 1079.5004 M 1629.6513,0.49963856 V 1079.5004 M 1639.6461,0.49963856 V 1079.5004 M 1649.6409,0.49963856 V 1079.5004 M 1659.6357,0.49963856 V 1079.5004 M 1669.6305,0.49963856 V 1079.5004 M 1679.6253,0.49963856 V 1079.5004 M 1689.6201,0.49963856 V 1079.5004 M 1699.6149,0.49963856 V 1079.5004 M 1709.6097,0.49963856 V 1079.5004 M 1719.6045,0.49963856 V 1079.5004 M 1729.5993,0.49963856 V 1079.5004 M 1739.5941,0.49963856 V 1079.5004 M 1749.5889,0.49963856 V 1079.5004 M 1759.5837,0.49963856 V 1079.5004 M 1769.5784,0.49963856 V 1079.5004 M 1779.5732,0.49963856 V 1079.5004 M 1789.568,0.49963856 V 1079.5004 M 1799.5628,0.49963856 V 1079.5004 M 1809.5576,0.49963856 V 1079.5004 M 1819.5524,0.49963856 V 1079.5004 M 1829.5472,0.49963856 V 1079.5004 M 1839.542,0.49963856 V 1079.5004 M 1849.5368,0.49963856 V 1079.5004 M 1859.5316,0.49963856 V 1079.5004 M 1869.5264,0.49963856 V 1079.5004 M 1879.5212,0.49963856 V 1079.5004 M 1889.516,0.49963856 V 1079.5004 M 1899.5107,0.49963856 V 1079.5004 M 1909.5055,0.49963856 V 1079.5004 M 1919.5003,0.49963856 V 1079.5004 M 0.49963856,0.49963856 H 1919.5003 M 0.49963856,10.490386 H 1919.5003 M 0.49963856,20.481134 H 1919.5003 M 0.49963856,30.471882 H 1919.5003 M 0.49963856,40.462629 H 1919.5003 M 0.49963856,50.453377 H 1919.5003 M 0.49963856,60.444125 H 1919.5003 M 0.49963856,70.434873 H 1919.5003 M 0.49963856,80.42562 H 1919.5003 M 0.49963856,90.416368 H 1919.5003 M 0.49963856,100.40711 H 1919.5003 M 0.49963856,110.39787 H 1919.5003 M 0.49963856,120.38861 H 1919.5003 M 0.49963856,130.37936 H 1919.5003 M 0.49963856,140.3701 H 1919.5003 M 0.49963856,150.36086 H 1919.5003 M 0.49963856,160.3516 H 1919.5003 M 0.49963856,170.34235 H 1919.5003 M 0.49963856,180.33309 H 1919.5003 M 0.49963856,190.32385 H 1919.5003 M 0.49963856,200.31459 H 1919.5003 M 0.49963856,210.30534 H 1919.5003 M 0.49963856,220.29609 H 1919.5003 M 0.49963856,230.28684 H 1919.5003 M 0.49963856,240.27759 H 1919.5003 M 0.49963856,250.26833 H 1919.5003 M 0.49963856,260.25908 H 1919.5003 M 0.49963856,270.24982 H 1919.5003 M 0.49963856,280.24058 H 1919.5003 M 0.49963856,290.23132 H 1919.5003 M 0.49963856,300.22207 H 1919.5003 M 0.49963856,310.21281 H 1919.5003 M 0.49963856,320.20357 H 1919.5003 M 0.49963856,330.19431 H 1919.5003 M 0.49963856,340.18506 H 1919.5003 M 0.49963856,350.1758 H 1919.5003 M 0.49963856,360.16656 H 1919.5003 M 0.49963856,370.1573 H 1919.5003 M 0.49963856,380.14805 H 1919.5003 M 0.49963856,390.1388 H 1919.5003 M 0.49963856,400.12958 H 1919.5003 M 0.49963856,410.12033 H 1919.5003 M 0.49963856,420.11107 H 1919.5003 M 0.49963856,430.10182 H 1919.5003 M 0.49963856,440.09257 H 1919.5003 M 0.49963856,450.08332 H 1919.5003 M 0.49963856,460.07406 H 1919.5003 M 0.49963856,470.06481 H 1919.5003 M 0.49963856,480.05556 H 1919.5003 M 0.49963856,490.04631 H 1919.5003 M 0.49963856,500.03705 H 1919.5003 M 0.49963856,510.0278 H 1919.5003 M 0.49963856,520.01855 H 1919.5003 M 0.49963856,530.0093 H 1919.5003 M 0.49963856,540.00004 H 1919.5003 M 0.49963856,549.99079 H 1919.5003 M 0.49963856,559.98154 H 1919.5003 M 0.49963856,569.97229 H 1919.5003 M 0.49963856,579.96304 H 1919.5003 M 0.49963856,589.95378 H 1919.5003 M 0.49963856,599.94453 H 1919.5003 M 0.49963856,609.93528 H 1919.5003 M 0.49963856,619.92603 H 1919.5003 M 0.49963856,629.91677 H 1919.5003 M 0.49963856,639.90752 H 1919.5003 M 0.49963856,649.89827 H 1919.5003 M 0.49963856,659.88902 H 1919.5003 M 0.49963856,669.87976 H 1919.5003 M 0.49963856,679.87051 H 1919.5003 M 0.49963856,689.86126 H 1919.5003 M 0.49963856,699.85201 H 1919.5003 M 0.49963856,709.84275 H 1919.5003 M 0.49963856,719.8335 H 1919.5003 M 0.49963856,729.82426 H 1919.5003 M 0.49963856,739.815 H 1919.5003 M 0.49963856,749.80575 H 1919.5003 M 0.49963856,759.79649 H 1919.5003 M 0.49963856,769.78725 H 1919.5003 M 0.49963856,779.77799 H 1919.5003 M 0.49963856,789.76874 H 1919.5003 M 0.49963856,799.75948 H 1919.5003 M 0.49963856,809.75024 H 1919.5003 M 0.49963856,819.74098 H 1919.5003 M 0.49963856,829.73173 H 1919.5003 M 0.49963856,839.72247 H 1919.5003 M 0.49963856,849.71322 H 1919.5003 M 0.49963856,859.70397 H 1919.5003 M 0.49963856,869.69472 H 1919.5003 M 0.49963856,879.68547 H 1919.5003 M 0.49963856,889.67621 H 1919.5003 M 0.49963856,899.66697 H 1919.5003 M 0.49963856,909.65771 H 1919.5003 M 0.49963856,919.64846 H 1919.5003 M 0.49963856,929.6392 H 1919.5003 M 0.49963856,939.62996 H 1919.5003 M 0.49963856,949.6207 H 1919.5003 M 0.49963856,959.61145 H 1919.5003 M 0.49963856,969.60219 H 1919.5003 M 0.49963856,979.59295 H 1919.5003 M 0.49963856,989.58369 H 1919.5003 M 0.49963856,999.5744 H 1919.5003 M 0.49963856,1009.5651 H 1919.5003 M 0.49963856,1019.5559 H 1919.5003 M 0.49963856,1029.5466 H 1919.5003 M 0.49963856,1039.5374 H 1919.5003 M 0.49963856,1049.5281 H 1919.5003 M 0.49963856,1059.5189 H 1919.5003 M 0.49963856,1069.5096 H 1919.5003 M 0.49963856,1079.5004 H 1919.5003"
       style="fill:none;stroke:#262626;stroke-width:0.999277px;stroke-opacity:0.93532968"
       id="path9577" />
  </g>
  <g
     inkscape:groupmode="layer"
     id="layer2"
     inkscape:label="Capa 2">
    <path
       style="fill:#4d4d4d;fill-opacity:1;fill-rule:evenodd;stroke:#232323;stroke-width:0;stroke-linejoin:round;stroke-opacity:1"
       d=""
       id="path10628" />
  </g>
  <g
     inkscape:groupmode="layer"
     id="layer3"
     inkscape:label="Capa 3"
     sodipodi:insensitive="true">
    <g
       id="g1641"
       style="fill:url(#linearGradient1679);fill-opacity:1">
      <rect
         style="fill:url(#linearGradient2901);fill-opacity:1;fill-rule:evenodd;stroke:#232323;stroke-width:0;stroke-linejoin:round"
         id="rect1060"
         width="70"
         height="800"
         x="1432.1576"
         y="-127.55856"
         ry="35"
         transform="rotate(20.240974)"
         clip-path="url(#clipPath7653)" />
      <rect
         style="fill:url(#linearGradient2513);fill-opacity:1;fill-rule:evenodd;stroke:#232323;stroke-width:0;stroke-linejoin:round"
         id="rect1060-2"
         width="70"
         height="700"
         x="978.83722"
         y="-436.62823"
         ry="35"
         transform="rotate(19.851043)"
         clip-path="url(#clipPath7689)" />
      <rect
         style="fill:url(#linearGradient2801);fill-opacity:1;fill-rule:evenodd;stroke:#232323;stroke-width:0;stroke-linejoin:round"
         id="rect1060-7"
         width="69.564598"
         height="620.63025"
         x="739.83441"
         y="-1330.6775"
         ry="31.031509"
         transform="matrix(0.20718967,0.97830079,-0.96451641,0.2640229,0,0)" />
    </g>
  </g>
</svg>
